# xmcd
#
# Track frame offsets:
#	150
#	14110
#	28400
#
# Disc length: 563 seconds
#
# Revision: 1
# Processed by: cddbd v1.5.2PL0 Copyright (c) Steve Scherf et al.
# Submitted via: audiograbber 1.83.01
#
DISCID=25023103
DTITLE=Beach Boys (With John Stamos) - Forever [CD Single)
DYEAR=2004
DGENRE=
TTITLE0=Forever (AC Mix)
TTITLE1=Forever (CHR Mix)
TTITLE2=Forever [CD Mix)
EXTD=
EXTT0=
EXTT1=
EXTT2=
PLAYORDER=
